<svg width="401" height="111" viewBox="0 0 401 111" fill="none" xmlns="http://www.w3.org/2000/svg">
<g filter="url(#filter0_d_5_96)">
<path d="M40.4688 0C46.6562 0 52.25 1 57.25 3C62.2812 4.96875 66.5781 7.71875 70.1406 11.25C73.7031 14.7812 76.4531 18.9844 78.3906 23.8594C80.3281 28.7344 81.2969 34.0625 81.2969 39.8438C81.2969 43.5625 80.9375 47.1562 80.2188 50.625C79.5 54.0938 78.4688 57.3594 77.125 60.4219C75.7812 63.4844 74.125 66.2812 72.1562 68.8125C70.2188 71.3438 68.0156 73.5312 65.5469 75.375C63.1094 77.1875 60.4219 78.5938 57.4844 79.5938C54.5781 80.5938 51.4688 81.0938 48.1562 81.0938C44.7812 81.0938 41.375 80.7812 37.9375 80.1562C34.5 79.5312 31.0938 78.8594 27.7188 78.1406C26.5625 78.7969 25.375 79.3594 24.1562 79.8281C22.9375 80.3281 21.7188 80.7344 20.5 81.0469C19.2812 81.3906 18.0781 81.6406 16.8906 81.7969C15.7344 81.9844 14.6406 82.0781 13.6094 82.0781C10.4844 82.0781 8.10938 81.7188 6.48438 81C4.82812 80.2812 4 79.2031 4 77.7656C4 76.9219 4.23438 76.1719 4.70312 75.5156C5.14062 74.8594 5.89062 74.3125 6.95312 73.875C8.01562 73.4062 9.40625 73.0625 11.125 72.8438C12.8125 72.5938 14.9219 72.4688 17.4531 72.4688C19.4219 72.4688 21.3594 72.5781 23.2656 72.7969C25.1719 72.9844 27.0625 73.2188 28.9375 73.5L30.2031 72.1875C30.8594 71.4062 31.3594 70.4219 31.7031 69.2344C32.0469 68.0156 32.2969 66.4531 32.4531 64.5469C32.6094 62.6406 32.7031 60.3125 32.7344 57.5625C32.7656 54.7812 32.7812 51.4219 32.7812 47.4844C32.7812 43.6719 32.7969 40.4219 32.8281 37.7344C32.8906 35.0156 33.0156 32.6875 33.2031 30.75C33.3906 28.8125 33.6719 27.1719 34.0469 25.8281C34.4219 24.4531 34.9219 23.2031 35.5469 22.0781C36.2031 20.9219 37.0156 19.7969 37.9844 18.7031C38.9531 17.5781 40.1094 16.2969 41.4531 14.8594L43.8438 16.9688C43.1562 17.625 42.6094 18.4375 42.2031 19.4062C41.8281 20.3438 41.5469 21.4688 41.3594 22.7812C41.1719 24.0625 41.0469 25.5312 40.9844 27.1875C40.9531 28.8125 40.9375 30.6562 40.9375 32.7188V59.1094C40.9375 61.1406 40.7188 62.9219 40.2812 64.4531C39.8438 65.9531 39.25 67.2969 38.5 68.4844C37.7812 69.6719 36.9531 70.7344 36.0156 71.6719C35.0781 72.6094 34.1094 73.4844 33.1094 74.2969C34.9531 74.6719 36.75 75.0469 38.5 75.4219C40.25 75.7969 41.9375 76.1406 43.5625 76.4531C45.2188 76.7656 46.7969 77.0312 48.2969 77.25C49.8281 77.4375 51.2812 77.5312 52.6562 77.5312C55.2188 77.5312 57.5 76.9688 59.5 75.8438C61.5 74.7188 63.2344 73.1875 64.7031 71.25C66.1719 69.2812 67.4062 66.9844 68.4062 64.3594C69.4375 61.7031 70.2656 58.8594 70.8906 55.8281C71.5156 52.7969 71.9531 49.625 72.2031 46.3125C72.4844 43 72.625 39.7188 72.625 36.4688C72.625 31.3125 71.9688 26.6875 70.6562 22.5938C69.3438 18.5 67.3906 15.0312 64.7969 12.1875C62.2344 9.3125 59.0312 7.125 55.1875 5.625C51.375 4.09375 46.9531 3.32812 41.9219 3.32812C38.2969 3.32812 35.1406 3.625 32.4531 4.21875C29.7656 4.78125 27.4531 5.54687 25.5156 6.51562C23.6094 7.45312 22.0469 8.53125 20.8281 9.75C19.6094 10.9688 18.6406 12.2344 17.9219 13.5469C17.2344 14.8281 16.75 16.1094 16.4688 17.3906C16.2188 18.6719 16.0938 19.8438 16.0938 20.9062C16.0938 22.1562 16.1875 23.3906 16.375 24.6094C16.5938 25.7969 17 26.8594 17.5938 27.7969C18.2188 28.7344 19.0938 29.4844 20.2188 30.0469C21.3438 30.6094 22.8438 30.8906 24.7188 30.8906C25.3438 30.8906 25.8594 30.8594 26.2656 30.7969C26.6719 30.7031 27.0156 30.5938 27.2969 30.4688C27.6094 30.3438 27.875 30.2031 28.0938 30.0469L28.6562 32.8125C28.1875 33.1562 27.3906 33.4531 26.2656 33.7031C25.1719 33.9531 23.9844 34.0781 22.7031 34.0781C20.8281 34.0781 19.0781 33.75 17.4531 33.0938C15.8594 32.4375 14.4688 31.5469 13.2812 30.4219C12.0938 29.2656 11.1719 27.9375 10.5156 26.4375C9.82812 24.9375 9.48438 23.3438 9.48438 21.6562C9.48438 18.75 10.25 16 11.7812 13.4062C13.3125 10.7812 15.4531 8.48438 18.2031 6.51562C20.9531 4.51562 24.2188 2.9375 28 1.78125C31.8125 0.59375 35.9688 0 40.4688 0ZM11.6875 75.8438C11.1875 75.8438 10.6562 75.8594 10.0938 75.8906C9.53125 75.9219 9.01562 76 8.54688 76.125C8.04688 76.25 7.64062 76.4375 7.32812 76.6875C7.01562 76.9375 6.85938 77.2969 6.85938 77.7656C6.85938 78.3906 7.375 78.8594 8.40625 79.1719C9.4375 79.4844 11.1719 79.6406 13.6094 79.6406C15.4844 79.6406 17.2656 79.4375 18.9531 79.0312C20.6719 78.625 22.2812 78.0312 23.7812 77.25C21.7188 76.875 19.6719 76.5469 17.6406 76.2656C15.6094 75.9844 13.625 75.8438 11.6875 75.8438ZM106.375 68.5312C106.219 68.7812 105.984 69.2188 105.672 69.8438C105.391 70.4375 105.016 71.1094 104.547 71.8594C104.109 72.6094 103.578 73.3906 102.953 74.2031C102.359 75.0156 101.672 75.75 100.891 76.4062C100.109 77.0625 99.2344 77.6094 98.2656 78.0469C97.3281 78.4844 96.2812 78.7031 95.125 78.7031C94.2188 78.7031 93.2812 78.5156 92.3125 78.1406C91.3438 77.7656 90.4375 77.0781 89.5938 76.0781C88.7812 75.0781 88.1094 73.7188 87.5781 72C87.0469 70.25 86.7812 68 86.7812 65.25C86.7812 62.625 86.875 60 87.0625 57.375C87.25 54.7188 87.4688 52.2969 87.7188 50.1094C88 47.9219 88.2656 46.0938 88.5156 44.625C88.7656 43.1562 88.9531 42.2656 89.0781 41.9531C89.2031 41.6719 89.4531 41.4219 89.8281 41.2031C90.2031 40.9844 90.625 40.8125 91.0938 40.6875C91.5938 40.5625 92.0938 40.4688 92.5938 40.4062C93.125 40.3438 93.5781 40.3125 93.9531 40.3125C94.4531 40.3125 94.8438 40.4375 95.125 40.6875C95.4375 40.9375 95.5938 41.3594 95.5938 41.9531C95.5938 42.2344 95.5312 42.7969 95.4062 43.6406C95.3125 44.4531 95.1875 45.4531 95.0312 46.6406C94.875 47.8281 94.7031 49.1406 94.5156 50.5781C94.3594 52.0156 94.2031 53.4844 94.0469 54.9844C93.8906 56.4531 93.75 57.9219 93.625 59.3906C93.5312 60.8281 93.4844 62.1406 93.4844 63.3281C93.4844 66.7344 93.8438 69.2656 94.5625 70.9219C95.3125 72.5781 96.5312 73.4062 98.2188 73.4062C99.6562 73.4062 101.109 72.3594 102.578 70.2656C104.078 68.1719 105.375 65.125 106.469 61.125C106.625 59.4375 106.766 57.6406 106.891 55.7344C107.047 53.7969 107.188 51.9688 107.312 50.25C107.438 48.5 107.547 46.9375 107.641 45.5625C107.766 44.1875 107.875 43.2031 107.969 42.6094C108.062 42.1719 108.312 41.8125 108.719 41.5312C109.125 41.2188 109.578 40.9844 110.078 40.8281C110.609 40.6406 111.109 40.5156 111.578 40.4531C112.078 40.3594 112.453 40.3125 112.703 40.3125C113.234 40.3125 113.594 40.4375 113.781 40.6875C114 40.9062 114.109 41.2656 114.109 41.7656C114.109 42.2031 114.062 43.0469 113.969 44.2969C113.906 45.5156 113.812 46.9531 113.688 48.6094C113.594 50.2344 113.484 51.9844 113.359 53.8594C113.234 55.7344 113.109 57.5469 112.984 59.2969C112.891 61.0156 112.797 62.5781 112.703 63.9844C112.641 65.3906 112.609 66.4531 112.609 67.1719C112.609 69.2969 112.719 70.9688 112.938 72.1875C113.188 73.4062 113.719 74.0156 114.531 74.0156C115.125 74.0156 115.766 73.6406 116.453 72.8906C117.172 72.1094 117.938 71.0312 118.75 69.6562C119.594 68.2812 120.5 66.6562 121.469 64.7812C122.438 62.875 123.484 60.7969 124.609 58.5469L125.078 57.5625L127 59.0156L126.531 60C125.031 62.9688 123.703 65.625 122.547 67.9688C121.422 70.2812 120.344 72.2344 119.312 73.8281C118.281 75.4219 117.234 76.6406 116.172 77.4844C115.109 78.2969 113.922 78.7031 112.609 78.7031C111.391 78.7031 110.375 78.4688 109.562 78C108.781 77.5312 108.156 76.8594 107.688 75.9844C107.219 75.1094 106.875 74.0469 106.656 72.7969C106.469 71.5469 106.375 70.125 106.375 68.5312ZM140.406 43.6406C139.5 43.6406 138.625 43.9688 137.781 44.625C136.969 45.25 136.188 46.125 135.438 47.25C134.688 48.3438 133.953 49.6406 133.234 51.1406C132.547 52.6094 131.859 54.1875 131.172 55.875V56.4375C131.078 59.1875 130.984 62.1094 130.891 65.2031C130.828 68.2969 130.797 71.6719 130.797 75.3281C130.797 75.9531 130.578 76.4844 130.141 76.9219C129.734 77.3281 129.25 77.6719 128.688 77.9531C128.125 78.2031 127.547 78.3906 126.953 78.5156C126.359 78.6406 125.875 78.7031 125.5 78.7031C125.031 78.7031 124.594 78.5625 124.188 78.2812C123.781 78 123.578 77.375 123.578 76.4062C123.578 75.9375 123.625 75.3594 123.719 74.6719C123.812 73.9531 123.938 73.1875 124.094 72.375C124.219 71.5625 124.375 70.7344 124.562 69.8906C124.719 69.0156 124.875 68.2031 125.031 67.4531C125.031 64.7969 125.031 62.4062 125.031 60.2812C125 58.1562 124.984 56.2656 124.984 54.6094C124.984 52.9531 124.984 51.5 124.984 50.25C124.953 49 124.938 47.9219 124.938 47.0156C124.938 45.5156 124.969 44.4219 125.031 43.7344C125.062 43.0156 125.125 42.5156 125.219 42.2344C125.375 41.7969 125.656 41.4531 126.062 41.2031C126.5 40.9531 126.953 40.7656 127.422 40.6406C127.891 40.4844 128.359 40.3906 128.828 40.3594C129.297 40.3281 129.656 40.3125 129.906 40.3125C130.5 40.3125 130.891 40.4844 131.078 40.8281C131.266 41.1719 131.359 41.7031 131.359 42.4219C131.359 44.0469 131.359 45.5156 131.359 46.8281C131.359 48.1406 131.328 49.4531 131.266 50.7656C131.859 49.3594 132.547 48.0312 133.328 46.7812C134.141 45.5 135.031 44.3906 136 43.4531C136.969 42.4844 137.984 41.7188 139.047 41.1562C140.141 40.5938 141.266 40.3125 142.422 40.3125C143.828 40.3125 144.984 40.6094 145.891 41.2031C146.828 41.7656 147.562 42.5625 148.094 43.5938C148.656 44.625 149.062 45.8438 149.312 47.25C149.594 48.625 149.781 50.125 149.875 51.75C150.75 50.1562 151.688 48.6719 152.688 47.2969C153.719 45.8906 154.797 44.6719 155.922 43.6406C157.078 42.6094 158.281 41.7969 159.531 41.2031C160.812 40.6094 162.141 40.3125 163.516 40.3125C165.891 40.3125 167.625 41.0625 168.719 42.5625C169.812 44.0312 170.359 46.0312 170.359 48.5625C170.359 50.1562 170.234 51.9375 169.984 53.9062C169.734 55.875 169.469 57.875 169.188 59.9062C168.906 61.9062 168.641 63.875 168.391 65.8125C168.141 67.75 168.016 69.5156 168.016 71.1094C168.016 73.0469 168.5 74.0156 169.469 74.0156C169.969 74.0156 170.516 73.7188 171.109 73.125C171.703 72.5 172.375 71.5625 173.125 70.3125C173.906 69.0312 174.797 67.4219 175.797 65.4844C176.828 63.5469 178.016 61.2344 179.359 58.5469L179.828 57.5625L181.75 59.0156L181.281 60C179.438 63.6875 177.859 66.7344 176.547 69.1406C175.266 71.5469 174.109 73.4688 173.078 74.9062C172.047 76.3125 171.062 77.2969 170.125 77.8594C169.219 78.4219 168.203 78.7031 167.078 78.7031C166.422 78.7031 165.781 78.6094 165.156 78.4219C164.531 78.2344 163.984 77.9062 163.516 77.4375C163.047 76.9688 162.672 76.3438 162.391 75.5625C162.109 74.75 161.969 73.7188 161.969 72.4688C161.969 70.5938 162.094 68.4844 162.344 66.1406C162.594 63.7969 162.875 61.4531 163.188 59.1094C163.5 56.7656 163.781 54.5625 164.031 52.5C164.281 50.4062 164.406 48.7031 164.406 47.3906C164.406 46.2344 164.156 45.3125 163.656 44.625C163.156 43.9062 162.406 43.5469 161.406 43.5469C160.406 43.5469 159.359 43.9375 158.266 44.7188C157.203 45.5 156.156 46.5156 155.125 47.7656C154.125 48.9844 153.172 50.3594 152.266 51.8906C151.391 53.4219 150.625 54.9375 149.969 56.4375C149.969 59.7188 149.938 62.5938 149.875 65.0625C149.812 67.5 149.719 69.5625 149.594 71.25C149.5 72.9375 149.359 74.2812 149.172 75.2812C148.984 76.25 148.781 76.9062 148.562 77.25C148.406 77.4688 148.141 77.6719 147.766 77.8594C147.391 78.0469 146.969 78.2031 146.5 78.3281C146.062 78.4531 145.625 78.5469 145.188 78.6094C144.781 78.6719 144.469 78.7031 144.25 78.7031C143.75 78.7031 143.312 78.5625 142.938 78.2812C142.594 77.9688 142.422 77.375 142.422 76.5C142.422 76.0938 142.453 75.5469 142.516 74.8594C142.609 74.1719 142.719 73.4062 142.844 72.5625C142.969 71.7188 143.109 70.8125 143.266 69.8438C143.422 68.875 143.578 67.8906 143.734 66.8906C143.766 65.9531 143.797 64.9062 143.828 63.75C143.859 62.5938 143.891 61.4531 143.922 60.3281C143.953 59.1719 143.969 58.0781 143.969 57.0469C144 55.9844 144.016 55.0781 144.016 54.3281C144.016 52.7344 143.969 51.2812 143.875 49.9688C143.781 48.6562 143.594 47.5312 143.312 46.5938C143.062 45.6562 142.703 44.9375 142.234 44.4375C141.766 43.9062 141.156 43.6406 140.406 43.6406ZM186.016 53.7656C186.047 57.3594 186.281 60.5625 186.719 63.375C187.156 66.1562 187.766 68.5156 188.547 70.4531C189.328 72.3594 190.281 73.8125 191.406 74.8125C192.531 75.8125 193.812 76.3125 195.25 76.3125C197.219 76.3125 198.844 75.5312 200.125 73.9688C201.438 72.375 202.406 70.2031 203.031 67.4531C201.406 67.1094 199.859 66.4688 198.391 65.5312C196.922 64.5938 195.625 63.4375 194.5 62.0625C193.375 60.6562 192.469 59.0469 191.781 57.2344C191.125 55.4219 190.797 53.4531 190.797 51.3281C190.797 49.5781 191.016 48.0469 191.453 46.7344C191.922 45.3906 192.531 44.2812 193.281 43.4062C194.031 42.5 194.891 41.8281 195.859 41.3906C196.859 40.9219 197.906 40.6875 199 40.6875C200.281 40.6875 201.594 41.0625 202.938 41.8125C204.281 42.5312 205.5 43.625 206.594 45.0938C207.688 46.5312 208.578 48.3438 209.266 50.5312C209.953 52.7188 210.297 55.2656 210.297 58.1719C210.297 59.2656 210.234 60.3438 210.109 61.4062C209.984 62.4688 209.797 63.5 209.547 64.5C211.047 64.0625 212.406 63.3594 213.625 62.3906C214.875 61.4219 215.906 60.1406 216.719 58.5469L217.234 57.5625L219.156 59.0156L218.641 60C217.578 62.125 216.156 63.8281 214.375 65.1094C212.625 66.3594 210.719 67.1719 208.656 67.5469C208.094 69.1406 207.359 70.625 206.453 72C205.578 73.3438 204.562 74.5156 203.406 75.5156C202.281 76.5156 201 77.2969 199.562 77.8594C198.156 78.4219 196.625 78.7031 194.969 78.7031C192.625 78.7031 190.469 78.2031 188.5 77.2031C186.562 76.2031 184.875 74.5781 183.438 72.3281C182.031 70.0781 180.922 67.125 180.109 63.4688C179.328 59.7812 178.938 55.2656 178.938 49.9219C178.938 42.4844 179.281 36.1562 179.969 30.9375C180.656 25.6875 181.562 21.4219 182.688 18.1406C183.812 14.8281 185.109 12.4219 186.578 10.9219C188.047 9.39062 189.562 8.625 191.125 8.625C192.094 8.625 192.891 9.01562 193.516 9.79688C194.141 10.5469 194.453 11.9219 194.453 13.9219C194.453 15.4844 194.328 17.2656 194.078 19.2656C193.828 21.2656 193.5 23.4062 193.094 25.6875C192.688 27.9688 192.203 30.3438 191.641 32.8125C191.078 35.25 190.484 37.6875 189.859 40.125C189.234 42.5312 188.594 44.9062 187.938 47.25C187.281 49.5625 186.641 51.7344 186.016 53.7656ZM193.891 50.9531C193.891 52.7969 194.141 54.5 194.641 56.0625C195.172 57.5938 195.875 58.9531 196.75 60.1406C197.625 61.2969 198.641 62.2656 199.797 63.0469C200.953 63.8281 202.188 64.375 203.5 64.6875C203.656 63.8125 203.75 62.9062 203.781 61.9688C203.844 61 203.875 60.0156 203.875 59.0156C203.875 56.7969 203.703 54.7969 203.359 53.0156C203.016 51.2031 202.562 49.6719 202 48.4219C201.438 47.1406 200.781 46.1562 200.031 45.4688C199.281 44.7812 198.516 44.4375 197.734 44.4375C196.672 44.4375 195.766 45.0156 195.016 46.1719C194.266 47.2969 193.891 48.8906 193.891 50.9531ZM191.406 15.0469C191.406 14.3906 191.328 13.875 191.172 13.5C191.016 13.125 190.766 12.9375 190.422 12.9375C190.078 12.9375 189.734 13.4219 189.391 14.3906C189.047 15.3594 188.703 16.6719 188.359 18.3281C188.047 19.9844 187.75 21.9062 187.469 24.0938C187.219 26.2812 186.984 28.6094 186.766 31.0781C186.547 33.5156 186.375 36.0156 186.25 38.5781C186.125 41.1406 186.047 43.6094 186.016 45.9844C186.766 43.2344 187.469 40.4219 188.125 37.5469C188.781 34.6406 189.344 31.8281 189.812 29.1094C190.312 26.3906 190.703 23.8281 190.984 21.4219C191.266 18.9844 191.406 16.8594 191.406 15.0469ZM271.984 60C271.328 61.2812 270.562 62.5 269.688 63.6562C268.844 64.7812 267.953 65.8281 267.016 66.7969C266.078 67.7344 265.141 68.6094 264.203 69.4219C263.266 70.2031 262.406 70.8906 261.625 71.4844V76.875C261.625 80.9688 261.297 84.6094 260.641 87.7969C260.016 90.9844 259.094 93.6875 257.875 95.9062C256.688 98.125 255.25 99.8125 253.562 100.969C251.906 102.125 250.047 102.703 247.984 102.703C246.859 102.703 245.828 102.469 244.891 102C243.953 101.562 243.141 100.953 242.453 100.172C241.797 99.3906 241.281 98.4688 240.906 97.4062C240.531 96.375 240.344 95.2656 240.344 94.0781C240.344 91.7969 240.719 89.6875 241.469 87.75C242.25 85.8438 243.297 84.0312 244.609 82.3125C245.922 80.625 247.438 79.0156 249.156 77.4844C250.875 75.9219 252.703 74.375 254.641 72.8438C254.672 71.125 254.719 69.4219 254.781 67.7344C254.875 66.0469 254.953 64.4531 255.016 62.9531C255.109 61.4531 255.188 60.0938 255.25 58.875C255.344 57.6562 255.422 56.6562 255.484 55.875C254.422 58.0312 253.219 60.1562 251.875 62.25C250.562 64.3125 249.156 66.2812 247.656 68.1562C246.156 70.0312 244.578 71.7656 242.922 73.3594C241.297 74.9219 239.656 76.2812 238 77.4375C236.344 78.5938 234.688 79.4844 233.031 80.1094C231.406 80.7656 229.844 81.0938 228.344 81.0938C226.656 81.0938 225.047 80.75 223.516 80.0625C222.016 79.4062 220.688 78.3594 219.531 76.9219C218.406 75.4844 217.516 73.6406 216.859 71.3906C216.172 69.1406 215.828 66.4531 215.828 63.3281C215.828 59.8281 216.219 56.2344 217 52.5469C217.781 48.8594 218.859 45.2031 220.234 41.5781C221.609 37.9531 223.25 34.4062 225.156 30.9375C227.062 27.4688 229.141 24.2031 231.391 21.1406C233.641 18.0469 236.031 15.2188 238.562 12.6562C241.094 10.0625 243.672 7.82812 246.297 5.95312C248.922 4.07812 251.547 2.625 254.172 1.59375C256.828 0.53125 259.406 0 261.906 0C264.531 0 266.625 0.671875 268.188 2.01562C269.781 3.32812 270.578 5.20312 270.578 7.64062C270.578 8.95312 270.297 10.2344 269.734 11.4844C269.203 12.7031 268.469 13.8906 267.531 15.0469C266.625 16.1719 265.594 17.25 264.438 18.2812C263.281 19.2812 262.094 20.2031 260.875 21.0469C259.688 21.8906 258.5 22.6406 257.312 23.2969C256.156 23.9531 255.125 24.5 254.219 24.9375L252.812 23.0156C254 22.4219 255.297 21.5781 256.703 20.4844C258.109 19.3906 259.422 18.1562 260.641 16.7812C261.859 15.4062 262.875 13.9219 263.688 12.3281C264.5 10.7344 264.906 9.14062 264.906 7.54688C264.906 6.20312 264.547 5.09375 263.828 4.21875C263.141 3.3125 262.031 2.85938 260.5 2.85938C258.125 2.85938 255.578 3.59375 252.859 5.0625C250.172 6.53125 247.484 8.57812 244.797 11.2031C242.141 13.8281 239.594 16.9688 237.156 20.625C234.719 24.25 232.562 28.2344 230.688 32.5781C228.812 36.9219 227.312 41.5312 226.188 46.4062C225.062 51.2812 224.5 56.2812 224.5 61.4062C224.5 63.6562 224.656 65.6719 224.969 67.4531C225.312 69.2344 225.781 70.75 226.375 72C227 73.2188 227.75 74.1719 228.625 74.8594C229.531 75.5156 230.547 75.8438 231.672 75.8438C233.047 75.8438 234.547 75.4219 236.172 74.5781C237.797 73.7344 239.422 72.5938 241.047 71.1562C242.703 69.7188 244.328 68.0625 245.922 66.1875C247.516 64.2812 248.984 62.2812 250.328 60.1875C251.672 58.0938 252.844 55.9688 253.844 53.8125C254.844 51.6562 255.578 49.6094 256.047 47.6719C256.234 45.3906 256.422 43.3125 256.609 41.4375C256.797 39.5312 256.969 37.8594 257.125 36.4219C257.312 34.9844 257.484 33.8281 257.641 32.9531C257.797 32.0469 257.938 31.4531 258.062 31.1719C258.312 30.7031 258.672 30.2344 259.141 29.7656C259.609 29.2969 260.109 28.8906 260.641 28.5469C261.203 28.1719 261.75 27.875 262.281 27.6562C262.812 27.4375 263.266 27.3281 263.641 27.3281C264.141 27.3281 264.469 27.5312 264.625 27.9375C264.812 28.3438 264.906 28.7812 264.906 29.25C264.906 30.625 264.672 32.4531 264.203 34.7344C263.734 37.0156 263.141 39.6719 262.422 42.7031C262.109 44.0156 261.875 45.75 261.719 47.9062C261.594 50.0312 261.5 52.3125 261.438 54.75C261.406 57.1562 261.391 59.5938 261.391 62.0625C261.391 64.5 261.375 66.6875 261.344 68.625C263.656 66.9375 265.5 65.2031 266.875 63.4219C268.281 61.6094 269.344 59.9844 270.062 58.5469L270.578 57.5625L272.5 59.0156L271.984 60ZM254.547 76.3125C253.078 77.4688 251.734 78.6875 250.516 79.9688C249.297 81.25 248.25 82.625 247.375 84.0938C246.531 85.5625 245.859 87.1562 245.359 88.875C244.891 90.625 244.656 92.5156 244.656 94.5469C244.656 96.4844 244.969 97.9219 245.594 98.8594C246.219 99.8281 247.016 100.312 247.984 100.312C248.953 100.312 249.828 99.8906 250.609 99.0469C251.422 98.2344 252.109 96.875 252.672 94.9688C253.266 93.0938 253.719 90.625 254.031 87.5625C254.375 84.5 254.547 80.75 254.547 76.3125ZM270.156 58.5469L270.625 57.5625C271.094 56.625 271.516 55.6562 271.891 54.6562C272.297 53.6562 272.641 52.7188 272.922 51.8438C273.203 50.9375 273.422 50.1406 273.578 49.4531C273.734 48.7344 273.844 48.1875 273.906 47.8125C273.094 47.7188 272.312 47.5156 271.562 47.2031C270.812 46.8906 270.156 46.4688 269.594 45.9375C269.031 45.4062 268.594 44.7812 268.281 44.0625C267.938 43.3438 267.766 42.5312 267.766 41.625C267.766 40.9062 267.891 40.2656 268.141 39.7031C268.391 39.1406 268.734 38.6719 269.172 38.2969C269.578 37.9219 270.047 37.6406 270.578 37.4531C271.078 37.2344 271.609 37.125 272.172 37.125C272.922 37.125 273.578 37.2812 274.141 37.5938C274.703 37.9062 275.172 38.3281 275.547 38.8594C275.922 39.3594 276.203 39.9531 276.391 40.6406C276.578 41.2969 276.672 41.9844 276.672 42.7031C277.547 42.7031 278.484 42.5781 279.484 42.3281C280.516 42.0781 281.547 41.8125 282.578 41.5312C283.609 41.2188 284.625 40.9375 285.625 40.6875C286.625 40.4375 287.547 40.3125 288.391 40.3125C289.109 40.3125 289.688 40.4688 290.125 40.7812C290.562 41.0625 290.781 41.5469 290.781 42.2344C290.781 42.7344 290.625 43.5625 290.312 44.7188C290.031 45.875 289.672 47.2188 289.234 48.75C288.797 50.2812 288.312 51.9531 287.781 53.7656C287.281 55.5469 286.812 57.3594 286.375 59.2031C285.938 61.0156 285.562 62.7812 285.25 64.5C284.969 66.2188 284.828 67.75 284.828 69.0938C284.828 70.7812 285.016 71.9219 285.391 72.5156C285.766 73.1094 286.438 73.4062 287.406 73.4062C287.812 73.4062 288.312 73.2344 288.906 72.8906C289.531 72.5156 290.281 71.8125 291.156 70.7812C292.031 69.7188 293.062 68.2188 294.25 66.2812C295.469 64.3125 296.875 61.7344 298.469 58.5469L298.938 57.5625L300.859 59.0156L300.391 60C298.516 63.75 296.844 66.8281 295.375 69.2344C293.906 71.6406 292.547 73.5469 291.297 74.9531C290.078 76.3594 288.922 77.3438 287.828 77.9062C286.734 78.4375 285.641 78.7031 284.547 78.7031C282.703 78.7031 281.203 78 280.047 76.5938C278.891 75.1875 278.312 73.0156 278.312 70.0781C278.312 68.4844 278.531 66.8281 278.969 65.1094C279.406 63.3906 279.953 61.6875 280.609 60C281.266 58.2812 282 56.5938 282.812 54.9375C283.625 53.2812 284.391 51.7188 285.109 50.25C285.859 48.75 286.531 47.3594 287.125 46.0781C287.719 44.7969 288.141 43.6719 288.391 42.7031L288.109 42.4219C287.609 42.4219 286.938 42.6875 286.094 43.2188C285.25 43.75 284.297 44.3594 283.234 45.0469C282.203 45.7031 281.094 46.3281 279.906 46.9219C278.719 47.5156 277.516 47.875 276.297 48C276.234 48.4375 276.094 49.0781 275.875 49.9219C275.688 50.7656 275.422 51.7031 275.078 52.7344C274.734 53.7656 274.344 54.8281 273.906 55.9219C273.469 57.0156 273.016 58.0469 272.547 59.0156L272.078 60L270.156 58.5469ZM272.453 39.75C272.172 39.75 271.938 39.8438 271.75 40.0312C271.562 40.2188 271.469 40.4375 271.469 40.6875C271.469 41.0625 271.562 41.3906 271.75 41.6719C271.938 41.9219 272.172 42.1406 272.453 42.3281C272.734 42.4844 273.016 42.6094 273.297 42.7031C273.609 42.7656 273.875 42.7969 274.094 42.7969C274.094 41.9219 273.953 41.2031 273.672 40.6406C273.391 40.0469 272.984 39.75 272.453 39.75ZM327.344 67.0781C327.344 68.8594 327.5 70.3594 327.812 71.5781C328.125 72.7969 328.672 73.4062 329.453 73.4062C329.922 73.4062 330.422 73.1875 330.953 72.75C331.516 72.2812 332.156 71.5312 332.875 70.5C333.594 69.4688 334.406 68.1406 335.312 66.5156C336.25 64.8594 337.312 62.8438 338.5 60.4688L339.906 57.5625L341.828 59.0156L340.422 61.9219C339.109 64.5469 337.875 66.9062 336.719 69C335.594 71.0625 334.516 72.8125 333.484 74.25C332.453 75.6875 331.438 76.7969 330.438 77.5781C329.469 78.3281 328.5 78.7031 327.531 78.7031C326.5 78.7031 325.625 78.4219 324.906 77.8594C324.219 77.2969 323.641 76.5312 323.172 75.5625C322.703 74.5625 322.344 73.4219 322.094 72.1406C321.844 70.8281 321.672 69.4375 321.578 67.9688C320.828 69.4688 320 70.875 319.094 72.1875C318.188 73.4688 317.234 74.5938 316.234 75.5625C315.266 76.5312 314.25 77.2969 313.188 77.8594C312.125 78.4219 311.062 78.7031 310 78.7031C308.438 78.7031 306.922 78.375 305.453 77.7188C303.984 77.0625 302.672 76.0625 301.516 74.7188C300.391 73.375 299.484 71.6875 298.797 69.6562C298.109 67.5938 297.766 65.1719 297.766 62.3906C297.766 59.1406 298.188 56.1719 299.031 53.4844C299.875 50.7656 301.016 48.4375 302.453 46.5C303.891 44.5312 305.547 43.0156 307.422 41.9531C309.297 40.8594 311.266 40.3125 313.328 40.3125C314.578 40.3125 315.734 40.5938 316.797 41.1562C317.859 41.7188 318.781 42.4062 319.562 43.2188C320.375 44 321.047 44.8438 321.578 45.75C322.109 46.625 322.469 47.375 322.656 48L323.219 43.4531C323.281 42.8594 323.562 42.3594 324.062 41.9531C324.594 41.5469 325.172 41.2344 325.797 41.0156C326.422 40.7656 327.031 40.5938 327.625 40.5C328.219 40.375 328.641 40.3125 328.891 40.3125C329.266 40.3125 329.516 40.375 329.641 40.5C329.766 40.625 329.828 40.875 329.828 41.25C329.828 41.7188 329.688 42.6719 329.406 44.1094C329.156 45.5156 328.875 47.3281 328.562 49.5469C328.281 51.7344 328 54.3125 327.719 57.2812C327.469 60.25 327.344 63.5156 327.344 67.0781ZM322.188 54.7031C322.188 53.2656 321.969 51.8594 321.531 50.4844C321.094 49.0781 320.5 47.8438 319.75 46.7812C319 45.6875 318.125 44.8125 317.125 44.1562C316.156 43.5 315.125 43.1719 314.031 43.1719C312.688 43.1719 311.422 43.5625 310.234 44.3438C309.078 45.0938 308.062 46.1719 307.188 47.5781C306.344 48.9531 305.672 50.625 305.172 52.5938C304.672 54.5312 304.422 56.6719 304.422 59.0156C304.422 63.7031 305.156 67.2812 306.625 69.75C308.094 72.1875 310.047 73.4062 312.484 73.4062C313.547 73.4062 314.641 72.9844 315.766 72.1406C316.922 71.2656 317.969 70.0312 318.906 68.4375C319.875 66.8125 320.656 64.8438 321.25 62.5312C321.875 60.2188 322.188 57.6094 322.188 54.7031ZM355.188 43.6406C354.281 43.6406 353.406 43.9688 352.562 44.625C351.75 45.25 350.969 46.125 350.219 47.25C349.469 48.3438 348.734 49.6406 348.016 51.1406C347.328 52.6094 346.641 54.1875 345.953 55.875V56.4375C345.859 59.1875 345.766 62.1094 345.672 65.2031C345.609 68.2969 345.578 71.6719 345.578 75.3281C345.578 75.9531 345.359 76.4844 344.922 76.9219C344.516 77.3281 344.031 77.6719 343.469 77.9531C342.906 78.2031 342.328 78.3906 341.734 78.5156C341.141 78.6406 340.656 78.7031 340.281 78.7031C339.812 78.7031 339.375 78.5625 338.969 78.2812C338.562 78 338.359 77.375 338.359 76.4062C338.359 75.9375 338.406 75.3594 338.5 74.6719C338.594 73.9531 338.719 73.1875 338.875 72.375C339 71.5625 339.156 70.7344 339.344 69.8906C339.5 69.0156 339.656 68.2031 339.812 67.4531C339.812 64.7969 339.812 62.4062 339.812 60.2812C339.781 58.1562 339.766 56.2656 339.766 54.6094C339.766 52.9531 339.766 51.5 339.766 50.25C339.734 49 339.719 47.9219 339.719 47.0156C339.719 45.5156 339.75 44.4219 339.812 43.7344C339.844 43.0156 339.906 42.5156 340 42.2344C340.156 41.7969 340.438 41.4531 340.844 41.2031C341.281 40.9531 341.734 40.7656 342.203 40.6406C342.672 40.4844 343.141 40.3906 343.609 40.3594C344.078 40.3281 344.438 40.3125 344.688 40.3125C345.281 40.3125 345.672 40.4844 345.859 40.8281C346.047 41.1719 346.141 41.7031 346.141 42.4219C346.141 44.0469 346.141 45.5156 346.141 46.8281C346.141 48.1406 346.109 49.4531 346.047 50.7656C346.641 49.3594 347.328 48.0312 348.109 46.7812C348.922 45.5 349.812 44.3906 350.781 43.4531C351.75 42.4844 352.766 41.7188 353.828 41.1562C354.922 40.5938 356.047 40.3125 357.203 40.3125C358.609 40.3125 359.766 40.6094 360.672 41.2031C361.609 41.7656 362.344 42.5625 362.875 43.5938C363.438 44.625 363.844 45.8438 364.094 47.25C364.375 48.625 364.562 50.125 364.656 51.75C365.531 50.1562 366.469 48.6719 367.469 47.2969C368.5 45.8906 369.578 44.6719 370.703 43.6406C371.859 42.6094 373.062 41.7969 374.312 41.2031C375.594 40.6094 376.922 40.3125 378.297 40.3125C380.672 40.3125 382.406 41.0625 383.5 42.5625C384.594 44.0312 385.141 46.0312 385.141 48.5625C385.141 50.1562 385.016 51.9375 384.766 53.9062C384.516 55.875 384.25 57.875 383.969 59.9062C383.688 61.9062 383.422 63.875 383.172 65.8125C382.922 67.75 382.797 69.5156 382.797 71.1094C382.797 73.0469 383.281 74.0156 384.25 74.0156C384.75 74.0156 385.297 73.7188 385.891 73.125C386.484 72.5 387.156 71.5625 387.906 70.3125C388.688 69.0312 389.578 67.4219 390.578 65.4844C391.609 63.5469 392.797 61.2344 394.141 58.5469L394.609 57.5625L396.531 59.0156L396.062 60C394.219 63.6875 392.641 66.7344 391.328 69.1406C390.047 71.5469 388.891 73.4688 387.859 74.9062C386.828 76.3125 385.844 77.2969 384.906 77.8594C384 78.4219 382.984 78.7031 381.859 78.7031C381.203 78.7031 380.562 78.6094 379.938 78.4219C379.312 78.2344 378.766 77.9062 378.297 77.4375C377.828 76.9688 377.453 76.3438 377.172 75.5625C376.891 74.75 376.75 73.7188 376.75 72.4688C376.75 70.5938 376.875 68.4844 377.125 66.1406C377.375 63.7969 377.656 61.4531 377.969 59.1094C378.281 56.7656 378.562 54.5625 378.812 52.5C379.062 50.4062 379.188 48.7031 379.188 47.3906C379.188 46.2344 378.938 45.3125 378.438 44.625C377.938 43.9062 377.188 43.5469 376.188 43.5469C375.188 43.5469 374.141 43.9375 373.047 44.7188C371.984 45.5 370.938 46.5156 369.906 47.7656C368.906 48.9844 367.953 50.3594 367.047 51.8906C366.172 53.4219 365.406 54.9375 364.75 56.4375C364.75 59.7188 364.719 62.5938 364.656 65.0625C364.594 67.5 364.5 69.5625 364.375 71.25C364.281 72.9375 364.141 74.2812 363.953 75.2812C363.766 76.25 363.562 76.9062 363.344 77.25C363.188 77.4688 362.922 77.6719 362.547 77.8594C362.172 78.0469 361.75 78.2031 361.281 78.3281C360.844 78.4531 360.406 78.5469 359.969 78.6094C359.562 78.6719 359.25 78.7031 359.031 78.7031C358.531 78.7031 358.094 78.5625 357.719 78.2812C357.375 77.9688 357.203 77.375 357.203 76.5C357.203 76.0938 357.234 75.5469 357.297 74.8594C357.391 74.1719 357.5 73.4062 357.625 72.5625C357.75 71.7188 357.891 70.8125 358.047 69.8438C358.203 68.875 358.359 67.8906 358.516 66.8906C358.547 65.9531 358.578 64.9062 358.609 63.75C358.641 62.5938 358.672 61.4531 358.703 60.3281C358.734 59.1719 358.75 58.0781 358.75 57.0469C358.781 55.9844 358.797 55.0781 358.797 54.3281C358.797 52.7344 358.75 51.2812 358.656 49.9688C358.562 48.6562 358.375 47.5312 358.094 46.5938C357.844 45.6562 357.484 44.9375 357.016 44.4375C356.547 43.9062 355.938 43.6406 355.188 43.6406Z" fill="url(#paint0_linear_5_96)"/>
</g>
<defs>
<filter id="filter0_d_5_96" x="0" y="0" width="400.531" height="110.703" filterUnits="userSpaceOnUse" color-interpolation-filters="sRGB">
<feFlood flood-opacity="0" result="BackgroundImageFix"/>
<feColorMatrix in="SourceAlpha" type="matrix" values="0 0 0 0 0 0 0 0 0 0 0 0 0 0 0 0 0 0 127 0" result="hardAlpha"/>
<feOffset dy="4"/>
<feGaussianBlur stdDeviation="2"/>
<feColorMatrix type="matrix" values="0 0 0 0 0 0 0 0 0 0 0 0 0 0 0 0 0 0 0.25 0"/>
<feBlend mode="normal" in2="BackgroundImageFix" result="effect1_dropShadow_5_96"/>
<feBlend mode="normal" in="SourceGraphic" in2="effect1_dropShadow_5_96" result="shape"/>
</filter>
<linearGradient id="paint0_linear_5_96" x1="32.8511" y1="41.064" x2="384.445" y2="41.064" gradientUnits="userSpaceOnUse">
<stop offset="0.151042" stop-color="#4DD4F7"/>
<stop offset="0.385417" stop-color="#9090FB"/>
<stop offset="0.598958" stop-color="#FF6B81"/>
<stop offset="0.807292" stop-color="#FBDF63"/>
<stop offset="1" stop-color="#D9F0F4"/>
</linearGradient>
</defs>
</svg>
